<mxfile host="app.diagrams.net" modified="2021-05-28T18:28:43.474Z" agent="5.0 (Macintosh; Intel Mac OS X 10_15_6) AppleWebKit/605.1.15 (KHTML, like Gecko) Version/14.0.3 Safari/605.1.15" etag="GIQoq1rRfAeSJpikH2Wb" version="14.7.2" type="github">
  <diagram id="emTx1KUM3lQgXSb6Pd_K" name="Page-1">
    <mxGraphModel dx="909" dy="1817" grid="1" gridSize="10" guides="1" tooltips="1" connect="1" arrows="1" fold="1" page="1" pageScale="1" pageWidth="850" pageHeight="1100" math="0" shadow="0">
      <root>
        <mxCell id="0" />
        <mxCell id="1" parent="0" />
        <mxCell id="A_fu50gzv6TWCwOzuYg5-2" value="เริ่มต้น" style="rounded=1;whiteSpace=wrap;html=1;" vertex="1" parent="1">
          <mxGeometry x="360" y="-1080" width="120" height="60" as="geometry" />
        </mxCell>
        <mxCell id="A_fu50gzv6TWCwOzuYg5-4" value="" style="endArrow=classic;html=1;" edge="1" parent="1">
          <mxGeometry width="50" height="50" relative="1" as="geometry">
            <mxPoint x="419.5" y="-1020" as="sourcePoint" />
            <mxPoint x="420" y="-970" as="targetPoint" />
          </mxGeometry>
        </mxCell>
        <mxCell id="A_fu50gzv6TWCwOzuYg5-5" value="รับค่าคะแนนเก็บ" style="shape=parallelogram;perimeter=parallelogramPerimeter;whiteSpace=wrap;html=1;fixedSize=1;" vertex="1" parent="1">
          <mxGeometry x="320" y="-970" width="200" height="60" as="geometry" />
        </mxCell>
        <mxCell id="A_fu50gzv6TWCwOzuYg5-6" value="" style="endArrow=classic;html=1;" edge="1" parent="1">
          <mxGeometry width="50" height="50" relative="1" as="geometry">
            <mxPoint x="419.5" y="-910" as="sourcePoint" />
            <mxPoint x="419.5" y="-850" as="targetPoint" />
          </mxGeometry>
        </mxCell>
        <mxCell id="A_fu50gzv6TWCwOzuYg5-7" value="รับค่าคะแนนกลางภาค" style="shape=parallelogram;perimeter=parallelogramPerimeter;whiteSpace=wrap;html=1;fixedSize=1;" vertex="1" parent="1">
          <mxGeometry x="320" y="-850" width="200" height="60" as="geometry" />
        </mxCell>
        <mxCell id="A_fu50gzv6TWCwOzuYg5-8" value="รับค่าคะแนนปลายภาค" style="shape=parallelogram;perimeter=parallelogramPerimeter;whiteSpace=wrap;html=1;fixedSize=1;" vertex="1" parent="1">
          <mxGeometry x="320" y="-730" width="200" height="60" as="geometry" />
        </mxCell>
        <mxCell id="A_fu50gzv6TWCwOzuYg5-9" value="" style="endArrow=classic;html=1;entryX=0.5;entryY=0;entryDx=0;entryDy=0;" edge="1" parent="1" target="A_fu50gzv6TWCwOzuYg5-8">
          <mxGeometry width="50" height="50" relative="1" as="geometry">
            <mxPoint x="420" y="-790" as="sourcePoint" />
            <mxPoint x="470" y="-840" as="targetPoint" />
          </mxGeometry>
        </mxCell>
        <mxCell id="A_fu50gzv6TWCwOzuYg5-10" value="มากกว่าหรือเท่ากับ &lt;br&gt;80 คะแนน" style="rhombus;whiteSpace=wrap;html=1;" vertex="1" parent="1">
          <mxGeometry x="340" y="-620" width="160" height="100" as="geometry" />
        </mxCell>
        <mxCell id="A_fu50gzv6TWCwOzuYg5-11" value="มากกว่าหรือเท่ากับ&amp;nbsp;&lt;br&gt;70 คะแนน" style="rhombus;whiteSpace=wrap;html=1;" vertex="1" parent="1">
          <mxGeometry x="340" y="-480" width="160" height="101" as="geometry" />
        </mxCell>
        <mxCell id="A_fu50gzv6TWCwOzuYg5-12" value="มากกว่าหรือเท่ากับ&lt;br&gt;60 คะแนน" style="rhombus;whiteSpace=wrap;html=1;" vertex="1" parent="1">
          <mxGeometry x="340" y="-340" width="160" height="100" as="geometry" />
        </mxCell>
        <mxCell id="A_fu50gzv6TWCwOzuYg5-13" value="&amp;nbsp;ต่ำกว่า 60 คะแนน ได้ &amp;nbsp;F" style="shape=parallelogram;perimeter=parallelogramPerimeter;whiteSpace=wrap;html=1;fixedSize=1;" vertex="1" parent="1">
          <mxGeometry x="330" y="-190" width="180" height="60" as="geometry" />
        </mxCell>
        <mxCell id="A_fu50gzv6TWCwOzuYg5-14" value="จบ" style="rounded=1;whiteSpace=wrap;html=1;" vertex="1" parent="1">
          <mxGeometry x="365" y="-70" width="120" height="60" as="geometry" />
        </mxCell>
        <mxCell id="A_fu50gzv6TWCwOzuYg5-15" value="" style="endArrow=classic;html=1;entryX=0.5;entryY=0;entryDx=0;entryDy=0;" edge="1" parent="1" target="A_fu50gzv6TWCwOzuYg5-10">
          <mxGeometry width="50" height="50" relative="1" as="geometry">
            <mxPoint x="420" y="-670" as="sourcePoint" />
            <mxPoint x="470" y="-720" as="targetPoint" />
          </mxGeometry>
        </mxCell>
        <mxCell id="A_fu50gzv6TWCwOzuYg5-16" value="" style="endArrow=classic;html=1;entryX=0.5;entryY=0;entryDx=0;entryDy=0;" edge="1" parent="1" target="A_fu50gzv6TWCwOzuYg5-11">
          <mxGeometry width="50" height="50" relative="1" as="geometry">
            <mxPoint x="420" y="-520" as="sourcePoint" />
            <mxPoint x="470" y="-570" as="targetPoint" />
          </mxGeometry>
        </mxCell>
        <mxCell id="A_fu50gzv6TWCwOzuYg5-17" value="" style="endArrow=classic;html=1;entryX=0.5;entryY=0;entryDx=0;entryDy=0;" edge="1" parent="1" target="A_fu50gzv6TWCwOzuYg5-12">
          <mxGeometry width="50" height="50" relative="1" as="geometry">
            <mxPoint x="420" y="-379" as="sourcePoint" />
            <mxPoint x="470" y="-429" as="targetPoint" />
          </mxGeometry>
        </mxCell>
        <mxCell id="A_fu50gzv6TWCwOzuYg5-18" value="" style="endArrow=classic;html=1;entryX=0.5;entryY=0;entryDx=0;entryDy=0;" edge="1" parent="1" target="A_fu50gzv6TWCwOzuYg5-13">
          <mxGeometry width="50" height="50" relative="1" as="geometry">
            <mxPoint x="420" y="-240" as="sourcePoint" />
            <mxPoint x="470" y="-290" as="targetPoint" />
          </mxGeometry>
        </mxCell>
        <mxCell id="A_fu50gzv6TWCwOzuYg5-20" value="" style="endArrow=classic;html=1;entryX=0.45;entryY=-0.017;entryDx=0;entryDy=0;entryPerimeter=0;" edge="1" parent="1" target="A_fu50gzv6TWCwOzuYg5-14">
          <mxGeometry width="50" height="50" relative="1" as="geometry">
            <mxPoint x="420" y="-130" as="sourcePoint" />
            <mxPoint x="470" y="-180" as="targetPoint" />
          </mxGeometry>
        </mxCell>
        <mxCell id="A_fu50gzv6TWCwOzuYg5-21" value="" style="endArrow=classic;html=1;" edge="1" parent="1">
          <mxGeometry width="50" height="50" relative="1" as="geometry">
            <mxPoint x="500" y="-570" as="sourcePoint" />
            <mxPoint x="560" y="-570" as="targetPoint" />
          </mxGeometry>
        </mxCell>
        <mxCell id="A_fu50gzv6TWCwOzuYg5-23" value="" style="endArrow=classic;html=1;" edge="1" parent="1">
          <mxGeometry width="50" height="50" relative="1" as="geometry">
            <mxPoint x="500" y="-430" as="sourcePoint" />
            <mxPoint x="560" y="-430" as="targetPoint" />
          </mxGeometry>
        </mxCell>
        <mxCell id="A_fu50gzv6TWCwOzuYg5-27" value="เกรด C" style="shape=parallelogram;perimeter=parallelogramPerimeter;whiteSpace=wrap;html=1;fixedSize=1;" vertex="1" parent="1">
          <mxGeometry x="555" y="-320" width="140" height="60" as="geometry" />
        </mxCell>
        <mxCell id="A_fu50gzv6TWCwOzuYg5-28" value="" style="endArrow=classic;html=1;" edge="1" parent="1">
          <mxGeometry width="50" height="50" relative="1" as="geometry">
            <mxPoint x="760" y="-90" as="sourcePoint" />
            <mxPoint x="420" y="-90" as="targetPoint" />
          </mxGeometry>
        </mxCell>
        <mxCell id="A_fu50gzv6TWCwOzuYg5-29" value="" style="endArrow=none;html=1;" edge="1" parent="1">
          <mxGeometry width="50" height="50" relative="1" as="geometry">
            <mxPoint x="760" y="-90" as="sourcePoint" />
            <mxPoint x="760" y="-580" as="targetPoint" />
            <Array as="points" />
          </mxGeometry>
        </mxCell>
        <mxCell id="A_fu50gzv6TWCwOzuYg5-30" value="" style="endArrow=none;html=1;exitX=0.94;exitY=0.4;exitDx=0;exitDy=0;exitPerimeter=0;" edge="1" parent="1">
          <mxGeometry width="50" height="50" relative="1" as="geometry">
            <mxPoint x="691" y="-576" as="sourcePoint" />
            <mxPoint x="760" y="-580" as="targetPoint" />
          </mxGeometry>
        </mxCell>
        <mxCell id="A_fu50gzv6TWCwOzuYg5-31" value="" style="endArrow=none;html=1;" edge="1" parent="1">
          <mxGeometry width="50" height="50" relative="1" as="geometry">
            <mxPoint x="750" y="-430" as="sourcePoint" />
            <mxPoint x="750" y="-100" as="targetPoint" />
            <Array as="points" />
          </mxGeometry>
        </mxCell>
        <mxCell id="A_fu50gzv6TWCwOzuYg5-32" value="" style="endArrow=none;html=1;" edge="1" parent="1">
          <mxGeometry width="50" height="50" relative="1" as="geometry">
            <mxPoint x="750" y="-430" as="sourcePoint" />
            <mxPoint x="680" y="-436" as="targetPoint" />
          </mxGeometry>
        </mxCell>
        <mxCell id="A_fu50gzv6TWCwOzuYg5-34" value="" style="endArrow=classic;html=1;" edge="1" parent="1">
          <mxGeometry width="50" height="50" relative="1" as="geometry">
            <mxPoint x="750" y="-100" as="sourcePoint" />
            <mxPoint x="420" y="-100" as="targetPoint" />
          </mxGeometry>
        </mxCell>
        <mxCell id="A_fu50gzv6TWCwOzuYg5-35" value="" style="endArrow=classic;html=1;" edge="1" parent="1">
          <mxGeometry width="50" height="50" relative="1" as="geometry">
            <mxPoint x="740" y="-110" as="sourcePoint" />
            <mxPoint x="420" y="-110" as="targetPoint" />
          </mxGeometry>
        </mxCell>
        <mxCell id="A_fu50gzv6TWCwOzuYg5-36" value="" style="endArrow=none;html=1;" edge="1" parent="1">
          <mxGeometry width="50" height="50" relative="1" as="geometry">
            <mxPoint x="740" y="-110" as="sourcePoint" />
            <mxPoint x="740" y="-280" as="targetPoint" />
          </mxGeometry>
        </mxCell>
        <mxCell id="A_fu50gzv6TWCwOzuYg5-37" value="" style="endArrow=none;html=1;exitX=1;exitY=0.75;exitDx=0;exitDy=0;" edge="1" parent="1" source="A_fu50gzv6TWCwOzuYg5-27">
          <mxGeometry width="50" height="50" relative="1" as="geometry">
            <mxPoint x="686" y="-280" as="sourcePoint" />
            <mxPoint x="740" y="-280" as="targetPoint" />
          </mxGeometry>
        </mxCell>
        <mxCell id="A_fu50gzv6TWCwOzuYg5-38" value="จริง" style="text;html=1;strokeColor=none;fillColor=none;align=center;verticalAlign=middle;whiteSpace=wrap;rounded=0;" vertex="1" parent="1">
          <mxGeometry x="500" y="-600" width="40" height="20" as="geometry" />
        </mxCell>
        <mxCell id="A_fu50gzv6TWCwOzuYg5-39" value="จริง" style="text;html=1;strokeColor=none;fillColor=none;align=center;verticalAlign=middle;whiteSpace=wrap;rounded=0;" vertex="1" parent="1">
          <mxGeometry x="500" y="-459.5" width="40" height="20" as="geometry" />
        </mxCell>
        <mxCell id="A_fu50gzv6TWCwOzuYg5-44" value="" style="endArrow=classic;html=1;startArrow=none;" edge="1" parent="1">
          <mxGeometry width="50" height="50" relative="1" as="geometry">
            <mxPoint x="550" y="-290.5" as="sourcePoint" />
            <mxPoint x="570" y="-291" as="targetPoint" />
          </mxGeometry>
        </mxCell>
        <mxCell id="A_fu50gzv6TWCwOzuYg5-46" value="" style="endArrow=none;html=1;" edge="1" parent="1">
          <mxGeometry width="50" height="50" relative="1" as="geometry">
            <mxPoint x="500" y="-290.6700000000001" as="sourcePoint" />
            <mxPoint x="550" y="-290" as="targetPoint" />
          </mxGeometry>
        </mxCell>
        <mxCell id="A_fu50gzv6TWCwOzuYg5-48" value="จริง" style="text;html=1;strokeColor=none;fillColor=none;align=center;verticalAlign=middle;whiteSpace=wrap;rounded=0;" vertex="1" parent="1">
          <mxGeometry x="500" y="-340" width="40" height="20" as="geometry" />
        </mxCell>
        <mxCell id="A_fu50gzv6TWCwOzuYg5-49" value="เท็จ" style="text;html=1;strokeColor=none;fillColor=none;align=center;verticalAlign=middle;whiteSpace=wrap;rounded=0;" vertex="1" parent="1">
          <mxGeometry x="350" y="-510" width="40" height="20" as="geometry" />
        </mxCell>
        <mxCell id="A_fu50gzv6TWCwOzuYg5-50" value="เท็จ" style="text;html=1;strokeColor=none;fillColor=none;align=center;verticalAlign=middle;whiteSpace=wrap;rounded=0;" vertex="1" parent="1">
          <mxGeometry x="340" y="-360" width="40" height="20" as="geometry" />
        </mxCell>
        <mxCell id="A_fu50gzv6TWCwOzuYg5-51" value="เท็จ" style="text;html=1;strokeColor=none;fillColor=none;align=center;verticalAlign=middle;whiteSpace=wrap;rounded=0;" vertex="1" parent="1">
          <mxGeometry x="350" y="-220" width="40" height="20" as="geometry" />
        </mxCell>
        <mxCell id="A_fu50gzv6TWCwOzuYg5-52" value="เกรด A" style="shape=parallelogram;perimeter=parallelogramPerimeter;whiteSpace=wrap;html=1;fixedSize=1;" vertex="1" parent="1">
          <mxGeometry x="550" y="-590" width="150" height="60" as="geometry" />
        </mxCell>
        <mxCell id="A_fu50gzv6TWCwOzuYg5-53" value="เกรด. &amp;nbsp;B" style="shape=parallelogram;perimeter=parallelogramPerimeter;whiteSpace=wrap;html=1;fixedSize=1;" vertex="1" parent="1">
          <mxGeometry x="550" y="-459.5" width="140" height="60" as="geometry" />
        </mxCell>
      </root>
    </mxGraphModel>
  </diagram>
</mxfile>
